<svg xmlns="http://www.w3.org/2000/svg" xmlns:xlink="http://www.w3.org/1999/xlink" width="500" height="390" viewBox="0 0 157.007 122.314" xml:space="preserve" style="shape-rendering:geometricPrecision;text-rendering:geometricPrecision;image-rendering:optimizeQuality;fill-rule:evenodd;clip-rule:evenodd"><defs><style type="text/css">.fil0{fill:#310401}.fil2{fill:#780500}.fil1{fill:#cb3805}.fil3{fill:#ed6437}.fil5{fill:#f0bc95}.fil4{fill:#fee7d5}</style></defs><g id="Layer_x0020_1"><metadata id="CorelCorpID_0Corel-Layer"/><g id="_395150432"><path id="_569533040" d="M29.228 0l5.8792 5.06505 26.0586 5.9178 34.664 0 26.346 -6.15511 5.60329 -4.82773 15.4868 3.06719 2.44103 33.0843 8.36097 9.05575 2.93924 18.5897 -12.9014 12.7255 11.0965 19.2187 -9.40386 -2.17084 5.04146 12.5182 -42.6133 14.0029 -29.7227 2.2223 -29.7227 -2.2223 -42.614 -14.0029 5.04146 -12.5182 -9.40386 2.17084 11.0965 -19.2187 -12.9014 -12.7255 2.93924 -18.5897 8.36097 -9.05575 2.44103 -33.0843c5.53538,-1.0965 8.97641,-1.77841 15.4868,-3.06719z" class="fil0"/><path id="_569533376" d="M111.076 22.0136c36.5961,-43.7527 28.5804,58.2387 27.8227,53.1894l-1.41101 0.383846 -0.878485 -1.16941c-9.8792,-13.1458 -35.3617,-38.5325 -25.5332,-52.4039z" class="fil0"/><path id="_569532944" d="M45.9314 22.0136c-36.5961,-43.7527 -28.5797,58.2387 -27.8227,53.1894l1.41101 0.383846 0.878485 -1.16941c9.8792,-13.1458 35.3617,-38.5325 25.5332,-52.4039z" class="fil0"/><polygon id="_569565152" points="78.504 15.153 96.276 15.153 110.926 24.107 120.653 43.942 125.62 38.687 124.487 47.601 132.681 49.771 125.883 53.001 147.396 90.263 139.43 88.425 145.704 103.999 107.467 116.563 78.504 118.729 49.541 116.563 11.304 103.999 17.577 88.425 9.611 90.263 31.124 53.001 24.326 49.771 32.52 47.601 31.388 38.687 36.355 43.942 46.081 24.107 60.731 15.153" class="fil1"/><polygon id="_569564984" points="95.815 86.798 106.425 81.662 110.779 63.469 121.9 93.522 107.467 116.563 78.504 118.729 78.504 81.085" class="fil2"/><polygon id="_569564720" points="61.193 86.798 50.583 81.662 46.228 63.469 35.108 93.522 49.541 116.563 78.504 118.729 78.504 81.085" class="fil2"/><polygon id="_569564336" points="118.48 39.51 120.653 43.942 125.62 38.687 124.487 47.601 132.681 49.771 125.883 53.001 147.396 90.263 139.43 88.425 145.704 103.999 128.204 109.749 139.808 100.059 118.183 39.642" class="fil3"/><polygon id="_569564744" points="78.504 77.426 84.453 77.628 95.815 86.798 104.041 86.787 109.76 95.475 91.074 115.996 78.504 118.729 65.933 115.996 47.247 95.475 52.966 86.787 61.193 86.798 72.555 77.628" class="fil4"/><polygon id="_569564192" points="78.504 113.251 88.623 113.251 95.069 99.413 104.164 101.619 91.074 115.996 78.504 118.729 65.933 115.996 54.958 103.942 63.065 102.029 68.385 113.251" class="fil5"/><polygon id="_569564864" points="85.45 64.663 82.751 48.455 94.478 45.192 95.625 60.575" class="fil5"/><polygon id="_569563832" points="104.125 52.692 97.625 47.518 98.49 60.154 103.39 59.136" class="fil5"/><polygon id="_569563424" points="109.387 33.62 108.091 22.374 128.878 4.463 139.621 6.59 141.944 38.083 149.569 46.341 142.77 63.451 150.901 54.443 152.763 62.842 141.448 74.001 129.763 59.723 139.301 51.229 133.178 40.196 132.139 20.825 118.183 39.642" class="fil4"/><path id="_569563712" d="M141.448 74.0014l-11.6848 -14.2781 9.53753 -8.49392 -6.12294 -11.0336 -1.0386 -19.371 3.59114 19.3781 7.00143 7.85418 0.0378842 15.3939 -1.32166 10.5504zm-9.30879 -53.1766l-13.9564 18.817 -8.79557 -6.02216 8.41387 1.45961 14.3381 -14.2545z" class="fil5"/><polygon id="_569563688" points="108.091 22.374 96.276 15.153 123.873 8.774" class="fil2"/><polygon id="_569563208" points="78.504 90.26 86.327 89.141 87.372 91.211 79.886 97.663 79.821 101.853 80.958 102.905 92.466 101.292 95.069 99.413 96.265 100.48 94.41 104.453 92.317 103.423 78.504 104.972 67.014 104.972 64.92 106.002 63.065 102.029 64.261 100.962 66.865 102.841 76.049 102.905 77.187 101.853 77.122 97.663 69.635 91.211 70.68 89.141" class="fil0"/><polygon id="_569563112" points="78.504 90.498 86.327 89.141 81.415 78.151 78.504 78.152 75.593 78.151 70.68 89.141" class="fil5"/><polygon id="_569562680" points="96.219 82.54 102.476 79.016 105.099 71.576 96.369 66.896 89.609 70.799 87.62 79.564" class="fil0"/><polygon id="_569563328" points="120.204 96.228 107.467 116.563 128.204 109.749 133.606 94.485 127.551 87.625 133.236 87.528 110.779 63.469" class="fil4"/><polygon id="_569562944" points="78.504 77.426 84.453 77.628 82.227 67.082 78.504 67.082 74.78 67.082 72.555 77.628" class="fil3"/><polygon id="_569562656" points="96.268 68.725 90.678 71.868 90.38 77.695 95.844 80.513 101.308 77.695 101.735 71.803" class="fil2"/><polygon id="_569562440" points="95.895 70.125 92.218 72.192 92.022 76.025 95.616 77.879 99.21 76.025 99.491 72.15" class="fil0"/><polygon id="_569561888" points="97.836 69.06 95.99 70.162 95.911 72.48 97.955 73.534 99.999 72.48 100.159 70.277" class="fil4"/><polygon id="_569561984" points="78.504 15.153 78.504 30.715 94.066 15.153" class="fil3"/><polygon id="_569561936" points="107.467 116.563 112.186 109.028 124.269 103.645 128.709 94.765 127.551 87.625 133.606 94.485 128.204 109.749" class="fil5"/><polygon id="_569562368" points="94.478 45.192 82.751 48.454 85.09 62.503 90.307 59.735" class="fil4"/><polygon id="_569562104" points="104.124 52.692 97.625 47.517 100.553 57.515" class="fil4"/><polygon id="_569561072" points="38.528 39.51 36.355 43.942 31.388 38.687 32.52 47.601 24.326 49.771 31.124 53.001 9.611 90.263 17.577 88.425 11.304 103.999 28.803 109.749 17.199 100.059 38.824 39.642" class="fil3"/><polygon id="_569561312" points="71.558 61.565 74.257 45.357 62.53 42.094 61.382 57.477" class="fil5"/><polygon id="_569561408" points="52.883 51.143 59.382 45.969 58.517 58.605 53.618 57.587" class="fil5"/><polygon id="_569561384" points="48.916 22.374 60.731 15.153 33.134 8.774" class="fil2"/><polygon id="_569560496" points="60.788 82.54 54.531 79.016 51.908 71.576 60.638 66.896 67.399 70.799 69.387 79.564" class="fil0"/><polygon id="_569560472" points="36.803 96.228 49.541 116.563 28.803 109.749 23.401 94.485 29.456 87.625 23.772 87.528 46.228 63.469" class="fil4"/><polygon id="_569560376" points="60.74 68.725 66.329 71.868 66.628 77.695 61.164 80.513 55.699 77.695 55.272 71.803" class="fil2"/><polygon id="_569560736" points="61.112 70.125 64.789 72.192 64.985 76.025 61.392 77.879 57.797 76.025 57.516 72.15" class="fil0"/><polygon id="_636165976" points="59.171 69.06 61.018 70.162 61.096 72.48 59.053 73.534 57.009 72.48 56.849 70.277" class="fil4"/><polygon id="_395157824" points="78.504 15.153 78.504 30.715 62.941 15.153" class="fil3"/><polygon id="_569545568" points="49.541 116.563 44.821 109.028 32.738 103.645 28.299 94.765 29.456 87.625 23.401 94.485 28.803 109.749" class="fil5"/><polygon id="_395157728" points="62.53 42.094 74.257 45.356 71.918 59.405 66.7 56.637" class="fil4"/><polygon id="_569543384" points="52.883 51.143 59.382 45.968 56.455 55.966" class="fil4"/><polygon id="_569543144" points="47.62 33.62 48.916 22.374 28.129 4.463 17.386 6.59 15.063 38.083 7.438 46.341 14.237 63.451 6.106 54.443 4.244 62.842 15.559 74.001 27.244 59.723 17.706 51.229 23.829 40.196 24.868 20.825 38.824 39.642" class="fil4"/><path id="_730900536" d="M15.559 74.0014l11.6848 -14.2781 -9.53753 -8.49392 6.12294 -11.0336 1.0386 -19.371 -3.59114 19.3781 -7.00143 7.85418 -0.0378842 15.3939 1.32166 10.5504zm9.30879 -53.1766l13.9564 18.817 8.79557 -6.02216 -8.41387 1.45961 -14.3381 -14.2545z" class="fil5"/><polygon id="_593035144" points="89.609 70.799 87.62 79.564 84.453 77.628 86.611 67.62 95.661 63.01 107.444 68.132 105.099 71.576 96.369 66.896" class="fil4"/><polygon id="_569541872" points="67.399 70.799 69.387 79.564 72.555 77.628 70.397 67.62 61.346 63.01 49.563 68.132 51.908 71.576 60.638 66.896" class="fil4"/></g></g></svg>