<svg xmlns="http://www.w3.org/2000/svg" xmlns:xlink="http://www.w3.org/1999/xlink" width="500" height="390" version="1.1" viewBox="0 0 500 390"><title>PANDA_face_2</title><desc>Created with Sketch.</desc><g id="Page-1" fill="none" fill-rule="evenodd" stroke="none" stroke-width="1"><g id="PANDA_face_2" transform="translate(-1.000000, 0.000000)"><path id="_569533040" fill="#310401" d="M94.0786525,0 L112.801385,16.1300133 L195.786857,34.9756699 L306.176839,34.9756699 L390.077557,15.3742827 L407.921634,0 L457.240454,9.76771736 L465.014089,115.127033 L491.640194,143.965715 L501.000414,203.165942 L459.914985,243.691205 L495.252581,304.894527 L465.305318,297.981332 L481.360207,337.846434 L345.655111,382.439668 L251.001051,389.516741 L156.346991,382.439668 L20.6396657,337.846434 L36.694555,297.981332 L6.74729152,304.894527 L42.0848879,243.691205 L0.999458623,203.165942 L10.3596782,143.965715 L36.9857841,115.127033 L44.7594184,9.76771736 C62.3872311,6.27583484 73.3454368,4.10424376 94.0782385,0 L94.0786525,0 Z"/><path id="_569533376" fill="#310401" d="M354.729452,70.1038807 C471.272345,-69.2297159 445.745776,255.569178 443.332826,239.489322 L438.839364,240.711707 L436.041766,236.987637 C404.580748,195.123899 323.429908,114.27814 354.729467,70.1036769 L354.729452,70.1038807 Z"/><path id="_569532944" fill="#310401" d="M147.271822,70.1038807 C30.7289293,-69.2297159 56.2577274,255.569178 58.6684479,239.489322 L63.16191,240.711707 L65.9595082,236.987637 C97.4205258,195.123899 178.571366,114.27814 147.271806,70.1036769 L147.271822,70.1038807 Z"/><polygon id="_569565152" fill="#CB3805" points="251.001 48.256 307.597 48.256 354.252 76.771 385.228 139.937 401.046 123.201 397.438 151.589 423.532 158.498 401.883 168.785 470.393 287.449 445.025 281.594 465.005 331.192 343.236 371.203 251.001 378.101 158.767 371.203 36.998 331.192 56.975 281.594 31.607 287.449 100.118 168.785 78.468 158.498 104.564 151.589 100.958 123.201 116.774 139.937 147.75 76.771 194.403 48.256"/><polygon id="_569564984" fill="#780500" points="306.129 276.416 339.918 260.058 353.784 202.121 389.199 297.829 343.236 371.203 251.001 378.101 251.001 258.221"/><polygon id="_569564720" fill="#780500" points="195.873 276.416 162.084 260.058 148.216 202.121 112.804 297.829 158.767 371.203 251.001 378.101 251.001 258.221"/><polygon id="_569564336" fill="#ED6437" points="378.308 125.824 385.228 139.937 401.046 123.201 397.438 151.589 423.532 158.498 401.883 168.785 470.393 287.449 445.025 281.594 465.005 331.192 409.275 349.504 446.229 318.645 377.362 126.242"/><polygon id="_569564744" fill="#FEE7D5" points="251.001 246.569 269.945 247.213 306.129 276.416 332.326 276.379 350.539 304.046 291.033 369.398 251.001 378.101 210.97 369.398 151.462 304.046 169.675 276.379 195.873 276.416 232.056 247.213"/><polygon id="_569564192" fill="#F0BC95" points="251.001 360.656 283.225 360.656 303.755 316.588 332.718 323.613 291.033 369.398 251.001 378.101 210.97 369.398 176.017 331.011 201.835 324.919 218.776 360.656"/><polygon id="_569564864" fill="#F0BC95" points="273.12 205.925 264.525 154.307 301.87 143.918 305.524 192.904"/><polygon id="_569563832" fill="#F0BC95" points="332.593 167.801 311.895 151.325 314.647 191.564 330.253 188.322"/><polygon id="_569563424" fill="#FEE7D5" points="349.351 107.064 345.224 71.251 411.421 14.213 445.633 20.988 453.031 121.278 477.313 147.576 455.661 202.064 481.555 173.378 487.485 200.125 451.451 235.663 414.24 190.193 444.614 163.144 425.115 128.007 421.806 66.318 377.362 126.242"/><path id="_569563712" fill="#F0BC95" d="M451.451254,235.662741 L414.240174,190.193112 L444.613119,163.143618 L425.11418,128.006331 L421.806684,66.3179986 L433.242925,128.028941 L455.539479,153.041138 L455.660124,202.064112 L451.451203,235.662741 L451.451254,235.662741 Z M421.806747,66.317903 L377.361595,126.242142 L349.351475,107.064144 L376.146044,111.712376 L421.806747,66.317903 L421.806747,66.317903 Z"/><polygon id="_569563688" fill="#780500" points="345.224 71.251 307.597 48.256 395.482 27.942"/><polygon id="_569563208" fill="#310401" points="251.001 287.44 275.916 283.877 279.244 290.468 255.401 311.016 255.194 324.358 258.816 327.708 295.465 322.572 303.755 316.588 307.563 319.986 301.656 332.638 294.991 329.358 251.001 334.291 214.41 334.291 207.742 337.571 201.835 324.919 205.643 321.521 213.936 327.505 243.184 327.708 246.808 324.358 246.601 311.016 222.759 290.468 226.085 283.877"/><polygon id="_569563112" fill="#F0BC95" points="251.001 288.196 275.916 283.877 260.271 248.877 251.001 248.882 241.73 248.877 226.085 283.877"/><polygon id="_569563328" fill="#FEE7D5" points="383.798 306.445 343.236 371.203 409.275 349.504 426.478 300.893 407.195 279.049 425.3 278.738 353.784 202.121"/><polygon id="_569562944" fill="#ED6437" points="251.001 246.569 269.945 247.213 262.859 213.626 251.001 213.626 239.142 213.626 232.056 247.213"/><polygon id="_569561984" fill="#ED6437" points="251.001 48.256 251.001 97.813 300.559 48.256"/><polygon id="_569561936" fill="#F0BC95" points="343.236 371.203 358.264 347.207 396.744 330.065 410.883 301.785 407.195 279.049 426.478 300.893 409.275 349.504"/><polygon id="_569562368" fill="#FEE7D5" points="301.873 143.918 264.525 154.305 271.975 199.046 288.59 190.23"/><polygon id="_569562104" fill="#FEE7D5" points="332.59 167.801 311.895 151.323 321.218 183.162"/><polygon id="_569561072" fill="#ED6437" points="123.694 125.824 116.774 139.937 100.958 123.201 104.564 151.589 78.468 158.498 100.118 168.785 31.607 287.449 56.975 281.594 36.998 331.192 92.726 349.504 55.773 318.645 124.638 126.242"/><polygon id="_569561312" fill="#F0BC95" points="228.88 196.059 237.475 144.442 200.13 134.053 196.477 183.039"/><polygon id="_569561408" fill="#F0BC95" points="169.409 162.869 190.105 146.393 187.353 186.631 171.751 183.389"/><polygon id="_569561384" fill="#780500" points="156.778 71.251 194.403 48.256 106.517 27.942"/><polygon id="_569560472" fill="#FEE7D5" points="118.201 306.445 158.767 371.203 92.726 349.504 75.522 300.893 94.805 279.049 76.704 278.738 148.216 202.121"/><polygon id="_395157824" fill="#ED6437" points="251.001 48.256 251.001 97.813 201.441 48.256"/><polygon id="_569545568" fill="#F0BC95" points="158.767 371.203 143.737 347.207 105.258 330.065 91.12 301.785 94.805 279.049 75.522 300.893 92.726 349.504"/><polygon id="_395157728" fill="#FEE7D5" points="200.13 134.053 237.475 144.439 230.027 189.18 213.41 180.364"/><polygon id="_569543384" fill="#FEE7D5" points="169.409 162.869 190.105 146.39 180.784 178.229"/><polygon id="_569543144" fill="#FEE7D5" points="152.648 107.064 156.778 71.251 90.58 14.213 56.367 20.988 48.969 121.278 24.687 147.576 46.34 202.064 20.444 173.378 14.517 200.125 50.549 235.663 87.76 190.193 57.387 163.144 76.886 128.007 80.193 66.318 124.638 126.242"/><path id="_730900536" fill="#F0BC95" d="M50.5487462,235.662741 L87.759826,190.193112 L57.3868808,163.143618 L76.8858204,128.006331 L80.1933162,66.3179986 L68.7570745,128.028941 L46.4605209,153.041138 L46.3398759,202.064112 L50.5487966,235.662741 L50.5487462,235.662741 Z M80.1932525,66.317903 L124.638405,126.242142 L152.648525,107.064144 L125.853956,111.712376 L80.1932525,66.317903 L80.1932525,66.317903 Z"/><polygon id="_593035144" fill="#FEE7D5" points="286.366 225.465 280.033 253.377 269.945 247.213 276.82 215.342 305.64 200.66 343.163 216.972 335.695 227.939 307.893 213.034"/><polygon id="_569541872" fill="#FEE7D5" points="215.637 225.465 221.967 253.377 232.056 247.213 225.183 215.342 196.361 200.66 158.838 216.972 166.306 227.939 194.107 213.034"/><polygon id="_395143520" fill="#310401" points="212.629 256.609 207.512 234.283 192.812 225.278 168.703 234.734 166.306 227.939 194.107 213.036 215.634 225.465 221.966 253.377"/><polygon id="_569552072" fill="#310401" points="289.37 256.609 294.488 234.283 309.188 225.278 333.297 234.734 335.696 227.939 307.895 213.036 286.366 225.465 280.033 253.377"/></g></g></svg>